<?xml version="1.0" encoding="UTF-8"?>
<svg width="215px" height="303px" viewBox="0 0 215 303" version="1.1" xmlns="http://www.w3.org/2000/svg" xmlns:xlink="http://www.w3.org/1999/xlink">
    <title>bird-black</title>
    <g id="bird-black" stroke="none" stroke-width="1" fill="none" fill-rule="evenodd">
        <g id="Group" transform="translate(0.039043, 0.000000)" fill="#000000" fill-rule="nonzero">
            <g id="Bird">
                <path d="M13.7315716,45.497215 C13.7315716,45.497215 13.2838056,39.7580351 12.9888699,33.1340483 L12.9888699,32.9838992 C10.9310234,34.0175146 4.60331284,33.2828567 4.60331284,33.2828567 C2.24382754,34.4585775 1.65663745,38.2873786 1.65663745,38.2873786 C-4.52360528,28.8655249 8.57824118,18.4154181 8.57824118,18.4154181 C9.60783477,8.25890644 22.9992544,2.81198102 27.7101813,1.6349196 C32.4211082,0.606666639 37.1320351,-0.574416625 36.9845673,0.311730977 C36.9845673,1.19519735 35.3610805,1.78506867 35.2162939,1.93119588 L35.3610805,1.93119588 C41.2544313,1.78506867 45.8125278,3.25304389 49.1989255,5.61118857 C57.2922282,10.0231579 61.4132837,17.9743553 64.2138319,27.9833991 C68.1820572,42.1094767 80.5505863,57.7129138 89.672142,64.9240907 C98.9465279,71.9904811 140.30187,92.1533554 154.728246,137.636456 C154.728246,137.636456 172.240721,151.908661 170.623937,164.566763 C170.623937,164.566763 181.367639,175.01687 177.979901,183.114195 C177.979901,183.114195 192.994807,203.574686 206.98012,216.964765 C220.811262,230.210057 204.474508,234.627389 194.171869,226.239151 C194.171869,226.239151 212.571832,244.636433 213.30649,253.615883 C214.042489,262.591312 199.17505,257.145727 199.17505,257.145727 C199.17505,257.145727 206.685184,265.97905 197.115863,265.684114 C187.546541,265.537987 153.254908,217.846891 147.663196,213.137304 C147.663196,213.137304 147.074665,219.17142 139.858126,217.259701 C132.64963,215.200513 117.634724,195.329894 117.634724,195.329894 C117.634724,195.329894 103.654774,195.770956 97.7681259,189.441905 C97.7681259,189.441905 97.1809358,196.653082 92.7649446,201.216541 C88.3489533,205.78 89.3772063,213.283432 89.3772063,213.283432 C89.3772063,213.283432 89.672142,215.495449 91.8828188,215.936512 C93.9406654,216.376234 99.533718,214.759451 99.9734403,217.994359 C105.420366,218.435421 110.572355,219.170079 114.694752,220.058908 C114.694752,220.058908 125.585921,221.821819 124.997391,233.007924 C124.703795,237.571383 124.262733,251.257739 123.969138,265.682774 C132.500822,265.682774 141.335486,266.123837 147.369601,267.447025 C147.369601,267.447025 154.579437,268.624087 154.138375,276.132881 C153.697312,283.490185 152.815186,307.778136 152.815186,307.778136 L101.745735,307.778136 C97.6219987,307.778136 95.7049169,308.366667 94.9702589,307.626647 L54.3495746,307.626647 L34.7712092,307.626647 C35.6569099,259.350148 36.2467812,233.59288 36.5408231,230.354844 C37.4229489,221.380756 37.7178846,220.49863 46.3983773,219.168739 C49.0514577,218.729016 52.285025,218.434081 55.9676989,218.140486 C56.8484841,216.374894 59.0605015,214.164217 63.7700878,214.164217 C71.7159226,214.01809 72.7441756,214.610642 75.1036609,213.577027 C77.3089753,212.546092 78.1924416,192.380537 76.4268495,188.410971 C74.6612574,184.436043 28.7370937,151.466258 21.6747252,116.881029 C21.6747252,116.881029 22.1144474,121.150893 18.874177,121.002085 C15.7867369,120.704468 9.31155849,107.165581 12.5464665,85.0883057 C15.6406097,63.0110308 13.7315716,45.497215 13.7315716,45.497215 L13.7315716,45.497215 Z" id="Path"></path>
            </g>
        </g>
    </g>
</svg>