<?xml version="1.0" encoding="UTF-8"?>
<svg width="762px" height="420px" viewBox="0 0 762 420" version="1.1" xmlns="http://www.w3.org/2000/svg" xmlns:xlink="http://www.w3.org/1999/xlink">
    <title>logo</title>
    <defs>
        <path d="M18.3673686,0.886996155 L18.3673686,97.9132848 C18.3673686,109.141356 12.4295666,111.368666 3.87558372,111.755502 L0,124.183314 C1.95510327,124.183314 3.88207432,124.198568 5.7744249,124.216003 C25.4877556,124.389261 42.5005087,110.336736 46.1964877,90.8336259 C46.8467469,87.4033105 46.919239,83.8749224 46.919239,80.3923022 L46.919239,0.886996155 L18.3673686,0.886996155 Z" id="path-1"></path>
        <filter x="-5.8%" y="-1.6%" width="118.6%" height="106.5%" filterUnits="objectBoundingBox" id="filter-2">
            <feMorphology radius="1" operator="dilate" in="SourceAlpha" result="shadowSpreadOuter1"></feMorphology>
            <feOffset dx="2" dy="2" in="shadowSpreadOuter1" result="shadowOffsetOuter1"></feOffset>
            <feColorMatrix values="0 0 0 0 0.8   0 0 0 0 0.270588235   0 0 0 0 0.282352941  0 0 0 1 0" type="matrix" in="shadowOffsetOuter1"></feColorMatrix>
        </filter>
        <path d="M165.937379,33.7321649 C157.344444,13.0805303 136.859676,0 114.628624,0 L111.773327,0 C89.5411908,0 69.0575048,13.0816194 60.4634875,33.7321649 C57.7282894,40.3051194 56.2330198,47.4207373 56.2330198,54.8490924 C56.2330198,62.2774476 57.7282894,69.3930654 60.4634875,75.9660199 C69.0564234,96.6165654 89.5411908,109.698185 111.773327,109.698185 L114.62754,109.698185 C136.859676,109.698185 157.344444,96.6165654 165.937379,75.9660199 C168.672578,69.3930654 170.167848,62.2774476 170.167848,54.8490924 C170.167848,47.4207373 168.673659,40.3051194 165.937379,33.7321649 Z M113.202597,97.1276262 C97.5433761,96.8977025 84.8952517,78.0614764 84.8952517,54.8480033 C84.8952517,31.6367084 97.541211,12.8015715 113.198267,12.5683805 C128.857488,12.7983042 141.505613,31.6345302 141.505613,54.8480033 C141.505613,78.0603874 128.859654,96.8955243 113.202597,97.1276262 Z" id="path-3"></path>
        <filter x="-1.8%" y="-1.8%" width="107.0%" height="107.3%" filterUnits="objectBoundingBox" id="filter-4">
            <feMorphology radius="1" operator="dilate" in="SourceAlpha" result="shadowSpreadOuter1"></feMorphology>
            <feOffset dx="2" dy="2" in="shadowSpreadOuter1" result="shadowOffsetOuter1"></feOffset>
            <feColorMatrix values="0 0 0 0 0.8   0 0 0 0 0.270588235   0 0 0 0 0.282352941  0 0 0 1 0" type="matrix" in="shadowOffsetOuter1"></feColorMatrix>
        </filter>
        <polygon id="path-5" points="236.168515 0.888087614 236.168515 91.5571755 208.035365 0.888087614 179.483494 0.888087614 181.833514 8.4613724 181.833514 108.810097 192.5406 108.810097 192.5406 42.9683026 212.97127 108.810097 246.875601 108.810097 246.875601 0.888089982"></polygon>
        <filter x="-4.0%" y="-1.9%" width="112.9%" height="107.4%" filterUnits="objectBoundingBox" id="filter-6">
            <feMorphology radius="1" operator="dilate" in="SourceAlpha" result="shadowSpreadOuter1"></feMorphology>
            <feOffset dx="2" dy="2" in="shadowSpreadOuter1" result="shadowOffsetOuter1"></feOffset>
            <feColorMatrix values="0 0 0 0 0.8   0 0 0 0 0.270588235   0 0 0 0 0.282352941  0 0 0 1 0" type="matrix" in="shadowOffsetOuter1"></feColorMatrix>
        </filter>
        <polygon id="path-7" points="337.972412 108.810095 304.484636 0.886998523 275.932765 0.886998523 282.0426 20.5786228 254.66574 108.810092 265.372826 108.810092 287.396144 37.8315422 296.86222 68.3393413 286.213559 68.3393413 282.358533 80.7638835 300.717248 80.7638835 309.41946 108.810095"></polygon>
        <filter x="-3.3%" y="-1.9%" width="111.3%" height="107.4%" filterUnits="objectBoundingBox" id="filter-8">
            <feMorphology radius="1" operator="dilate" in="SourceAlpha" result="shadowSpreadOuter1"></feMorphology>
            <feOffset dx="2" dy="2" in="shadowSpreadOuter1" result="shadowOffsetOuter1"></feOffset>
            <feColorMatrix values="0 0 0 0 0.8   0 0 0 0 0.270588235   0 0 0 0 0.282352941  0 0 0 1 0" type="matrix" in="shadowOffsetOuter1"></feColorMatrix>
        </filter>
        <polygon id="path-9" points="414.792025 0.886998523 325.072571 0.886998523 325.072571 13.3126323 355.657444 13.3126323 355.657444 108.810097 384.209315 108.810097 384.209315 13.3126323 414.792025 13.3126323"></polygon>
        <filter x="-2.2%" y="-1.9%" width="108.9%" height="107.4%" filterUnits="objectBoundingBox" id="filter-10">
            <feMorphology radius="1" operator="dilate" in="SourceAlpha" result="shadowSpreadOuter1"></feMorphology>
            <feOffset dx="2" dy="2" in="shadowSpreadOuter1" result="shadowOffsetOuter1"></feOffset>
            <feColorMatrix values="0 0 0 0 0.8   0 0 0 0 0.270588235   0 0 0 0 0.282352941  0 0 0 1 0" type="matrix" in="shadowOffsetOuter1"></feColorMatrix>
        </filter>
        <path d="M469.828594,0.886998523 L469.828594,68.3393413 L455.001402,68.3393413 L451.146376,80.7638835 L469.828596,80.7638835 L469.828596,108.810095 L498.380467,108.810095 L498.380467,0.886998523 L469.828594,0.886998523 Z M422.594506,0.886996155 L422.594506,108.810092 L451.146376,108.810092 L451.146376,0.886996155 L422.594506,0.886996155 Z" id="path-11"></path>
        <filter x="-2.6%" y="-1.9%" width="110.6%" height="107.4%" filterUnits="objectBoundingBox" id="filter-12">
            <feMorphology radius="1" operator="dilate" in="SourceAlpha" result="shadowSpreadOuter1"></feMorphology>
            <feOffset dx="2" dy="2" in="shadowSpreadOuter1" result="shadowOffsetOuter1"></feOffset>
            <feColorMatrix values="0 0 0 0 0.8   0 0 0 0 0.270588235   0 0 0 0 0.282352941  0 0 0 1 0" type="matrix" in="shadowOffsetOuter1"></feColorMatrix>
        </filter>
        <polygon id="path-13" points="589.40337 108.810095 555.915594 0.886998523 527.363724 0.886998523 533.473559 20.5786228 506.096699 108.810092 516.803785 108.810092 538.827103 37.8315422 548.293179 68.3393413 537.644518 68.3393413 533.789492 80.7638835 552.148207 80.7638835 560.850418 108.810095"></polygon>
        <filter x="-3.3%" y="-1.9%" width="111.3%" height="107.4%" filterUnits="objectBoundingBox" id="filter-14">
            <feMorphology radius="1" operator="dilate" in="SourceAlpha" result="shadowSpreadOuter1"></feMorphology>
            <feOffset dx="2" dy="2" in="shadowSpreadOuter1" result="shadowOffsetOuter1"></feOffset>
            <feColorMatrix values="0 0 0 0 0.8   0 0 0 0 0.270588235   0 0 0 0 0.282352941  0 0 0 1 0" type="matrix" in="shadowOffsetOuter1"></feColorMatrix>
        </filter>
        <polygon id="path-15" points="652.292914 0.888087614 652.292914 91.5571755 624.159764 0.888087614 595.607893 0.888087614 597.957913 8.4613724 597.957913 108.810097 608.664999 108.810097 608.664999 42.9683026 629.095669 108.810097 663 108.810097 663 0.888089982"></polygon>
        <filter x="-4.0%" y="-1.9%" width="112.9%" height="107.4%" filterUnits="objectBoundingBox" id="filter-16">
            <feMorphology radius="1" operator="dilate" in="SourceAlpha" result="shadowSpreadOuter1"></feMorphology>
            <feOffset dx="2" dy="2" in="shadowSpreadOuter1" result="shadowOffsetOuter1"></feOffset>
            <feColorMatrix values="0 0 0 0 0.8   0 0 0 0 0.270588235   0 0 0 0 0.282352941  0 0 0 1 0" type="matrix" in="shadowOffsetOuter1"></feColorMatrix>
        </filter>
        <path d="M73.6534185,88.8540084 C69.5387192,78.9651523 62.6466293,70.8481197 54.139169,65.1131286 C61.6209306,61.6381368 67.7697136,55.5261165 71.0686115,47.5986877 C72.7510601,43.5570606 73.6696462,39.1819917 73.6696462,34.6140494 C73.6696462,30.0461072 72.7499787,25.6710383 71.0686115,21.6294112 C65.7853944,8.93026879 53.1892042,0.887332353 39.519709,0.887332353 L0,0.887332353 L0,108.810429 L28.5518705,108.810429 L28.5518705,13.3216836 L35.4493719,13.3129661 C43.4039485,13.3129661 49.852437,22.849854 49.852437,34.6129604 C49.852437,46.3760667 43.4039485,55.9129546 35.4493719,55.9129546 L32.6341098,55.8769957 L32.4609957,56.4468982 C32.4599143,56.4468982 32.4588305,56.4468982 32.4577492,56.4458091 L28.5507868,69.3465423 C40.4923898,73.9188433 49.3525688,89.8042121 49.6014192,108.809337 L77.7940779,108.809337 C77.6891281,101.79942 76.2436277,95.0771776 73.6534138,88.8540108 L73.6534185,88.8540084 Z" id="path-17"></path>
        <filter x="-2.6%" y="-1.9%" width="110.3%" height="107.4%" filterUnits="objectBoundingBox" id="filter-18">
            <feMorphology radius="1" operator="dilate" in="SourceAlpha" result="shadowSpreadOuter1"></feMorphology>
            <feOffset dx="2" dy="2" in="shadowSpreadOuter1" result="shadowOffsetOuter1"></feOffset>
            <feColorMatrix values="0 0 0 0 0.8   0 0 0 0 0.270588235   0 0 0 0 0.282352941  0 0 0 1 0" type="matrix" in="shadowOffsetOuter1"></feColorMatrix>
        </filter>
        <path d="M135.819287,0.886998523 L135.819287,68.3393413 L120.992095,68.3393413 L117.137069,80.7638835 L135.819289,80.7638835 L135.819289,108.810095 L164.37116,108.810095 L164.37116,0.886998523 L135.819287,0.886998523 Z M88.5851986,0.886996155 L88.5851986,108.810092 L117.137069,108.810092 L117.137069,0.886996155 L88.5851986,0.886996155 Z" id="path-19"></path>
        <filter x="-2.6%" y="-1.9%" width="110.6%" height="107.4%" filterUnits="objectBoundingBox" id="filter-20">
            <feMorphology radius="1" operator="dilate" in="SourceAlpha" result="shadowSpreadOuter1"></feMorphology>
            <feOffset dx="2" dy="2" in="shadowSpreadOuter1" result="shadowOffsetOuter1"></feOffset>
            <feColorMatrix values="0 0 0 0 0.8   0 0 0 0 0.270588235   0 0 0 0 0.282352941  0 0 0 1 0" type="matrix" in="shadowOffsetOuter1"></feColorMatrix>
        </filter>
        <path d="M284.873549,33.7321649 C276.280613,13.0805303 255.795846,0 233.564793,0 L230.709497,0 C208.477361,0 187.993675,13.0816194 179.399657,33.7321649 C176.664459,40.3051194 175.16919,47.4207373 175.16919,54.8490924 C175.16919,62.2774476 176.664459,69.3930654 179.399657,75.9660199 C187.992593,96.6165654 208.477361,109.698185 230.709497,109.698185 L233.56371,109.698185 C255.795846,109.698185 276.280613,96.6165654 284.873549,75.9660199 C287.608747,69.3930654 289.104017,62.2774476 289.104017,54.8490924 C289.104017,47.4207373 287.609829,40.3051194 284.873549,33.7321649 Z M232.138767,97.1276262 C216.479546,96.8977025 203.831422,78.0614764 203.831422,54.8480033 C203.831422,31.6367084 216.477381,12.8015715 232.134437,12.5683805 C247.793658,12.7983042 260.441783,31.6345302 260.441783,54.8480033 C260.441783,78.0603874 247.795823,96.8955243 232.138767,97.1276262 Z" id="path-21"></path>
        <filter x="-1.8%" y="-1.8%" width="107.0%" height="107.3%" filterUnits="objectBoundingBox" id="filter-22">
            <feMorphology radius="1" operator="dilate" in="SourceAlpha" result="shadowSpreadOuter1"></feMorphology>
            <feOffset dx="2" dy="2" in="shadowSpreadOuter1" result="shadowOffsetOuter1"></feOffset>
            <feColorMatrix values="0 0 0 0 0.8   0 0 0 0 0.270588235   0 0 0 0 0.282352941  0 0 0 1 0" type="matrix" in="shadowOffsetOuter1"></feColorMatrix>
        </filter>
        <path d="M382.279678,34.0732351 C373.825235,13.757223 353.672629,0.88700089 331.799704,0.88700089 L299.959757,0.88700089 L299.959757,108.810097 L331.800786,108.810097 C353.67371,108.810097 373.826317,95.9409642 382.280761,75.623863 C384.971597,69.1566072 386.443065,62.1564969 386.443065,54.8490972 C386.441983,47.5406083 384.971597,40.5404981 382.27968,34.0732423 L382.279678,34.0732351 Z M330.110765,96.4542103 L328.510544,96.4498516 L328.510544,13.2472584 L330.110765,13.2428996 C345.647725,13.2428996 358.242832,31.8699065 358.242832,54.8490995 C358.242832,77.8272035 345.647723,96.4542103 330.110765,96.4542103 Z" id="path-23"></path>
        <filter x="-2.3%" y="-1.9%" width="109.3%" height="107.4%" filterUnits="objectBoundingBox" id="filter-24">
            <feMorphology radius="1" operator="dilate" in="SourceAlpha" result="shadowSpreadOuter1"></feMorphology>
            <feOffset dx="2" dy="2" in="shadowSpreadOuter1" result="shadowOffsetOuter1"></feOffset>
            <feColorMatrix values="0 0 0 0 0.8   0 0 0 0 0.270588235   0 0 0 0 0.282352941  0 0 0 1 0" type="matrix" in="shadowOffsetOuter1"></feColorMatrix>
        </filter>
        <polygon id="path-25" points="456.462747 13.3126323 456.462747 0.886998523 397.328169 0.886998523 397.328169 108.810095 456.462747 108.810095 456.462747 96.3844611 425.880037 96.3844611 425.880037 80.7638835 440.720215 80.7638835 444.561178 68.3393413 425.880039 68.3393413 425.880039 13.3126299"></polygon>
        <filter x="-3.4%" y="-1.9%" width="113.5%" height="107.4%" filterUnits="objectBoundingBox" id="filter-26">
            <feMorphology radius="1" operator="dilate" in="SourceAlpha" result="shadowSpreadOuter1"></feMorphology>
            <feOffset dx="2" dy="2" in="shadowSpreadOuter1" result="shadowOffsetOuter1"></feOffset>
            <feColorMatrix values="0 0 0 0 0.8   0 0 0 0 0.270588235   0 0 0 0 0.282352941  0 0 0 1 0" type="matrix" in="shadowOffsetOuter1"></feColorMatrix>
        </filter>
        <path d="M534.690665,63.799732 C525.585964,41.5582515 488.814437,49.8779662 488.814437,27.4893803 C488.814437,19.6600217 493.106575,13.3126299 498.400611,13.3126299 L528.419619,13.3366017 L528.419619,0.886996155 L494.018669,0.886996155 C480.845795,0.886996155 468.708355,8.63789752 463.616647,20.8728361 C461.99587,24.7673554 461.110825,28.9833317 461.110825,33.384553 C461.110825,37.7857744 462.01859,41.9930333 463.616647,45.89627 C472.721349,68.1377505 509.493957,59.8180357 509.493957,82.2066216 C509.493957,90.0359802 505.201818,96.383372 499.907783,96.383372 L464.477887,96.3594002 L464.477887,108.809006 L504.288642,108.809006 C517.461515,108.809006 529.598955,101.058104 534.689582,88.8231658 C536.310359,84.9286466 537.196486,80.7126702 537.196486,76.3114489 C537.197566,71.9102276 536.28872,67.7040601 534.690663,63.799732 L534.690665,63.799732 Z" id="path-27"></path>
        <filter x="-2.6%" y="-1.9%" width="110.5%" height="107.4%" filterUnits="objectBoundingBox" id="filter-28">
            <feMorphology radius="1" operator="dilate" in="SourceAlpha" result="shadowSpreadOuter1"></feMorphology>
            <feOffset dx="2" dy="2" in="shadowSpreadOuter1" result="shadowOffsetOuter1"></feOffset>
            <feColorMatrix values="0 0 0 0 0.8   0 0 0 0 0.270588235   0 0 0 0 0.282352941  0 0 0 1 0" type="matrix" in="shadowOffsetOuter1"></feColorMatrix>
        </filter>
    </defs>
    <g id="logo" stroke="none" stroke-width="1" fill="none" fill-rule="evenodd">
        <g id="Jonathan-Rhodes" transform="translate(45.000000, 57.000000)" fill-rule="nonzero">
            <g id="Group-2">
                <g id="Path">
                    <use fill="black" fill-opacity="1" filter="url(#filter-2)" xlink:href="#path-1"></use>
                    <use fill="#FDEAD5" xlink:href="#path-1"></use>
                </g>
                <g id="Shape">
                    <use fill="black" fill-opacity="1" filter="url(#filter-4)" xlink:href="#path-3"></use>
                    <use fill="#FDEAD5" xlink:href="#path-3"></use>
                </g>
                <g id="Path">
                    <use fill="black" fill-opacity="1" filter="url(#filter-6)" xlink:href="#path-5"></use>
                    <use fill="#FDEAD5" xlink:href="#path-5"></use>
                </g>
                <g id="Path">
                    <use fill="black" fill-opacity="1" filter="url(#filter-8)" xlink:href="#path-7"></use>
                    <use fill="#FDEAD5" xlink:href="#path-7"></use>
                </g>
                <g id="Path">
                    <use fill="black" fill-opacity="1" filter="url(#filter-10)" xlink:href="#path-9"></use>
                    <use fill="#FDEAD5" xlink:href="#path-9"></use>
                </g>
                <g id="Shape">
                    <use fill="black" fill-opacity="1" filter="url(#filter-12)" xlink:href="#path-11"></use>
                    <use fill="#FDEAD5" xlink:href="#path-11"></use>
                </g>
                <g id="Path">
                    <use fill="black" fill-opacity="1" filter="url(#filter-14)" xlink:href="#path-13"></use>
                    <use fill="#FDEAD5" xlink:href="#path-13"></use>
                </g>
                <g id="Path">
                    <use fill="black" fill-opacity="1" filter="url(#filter-16)" xlink:href="#path-15"></use>
                    <use fill="#FDEAD5" xlink:href="#path-15"></use>
                </g>
            </g>
            <g id="Group" transform="translate(62.760621, 172.301815)">
                <g id="Path">
                    <use fill="black" fill-opacity="1" filter="url(#filter-18)" xlink:href="#path-17"></use>
                    <use fill="#FDEAD5" xlink:href="#path-17"></use>
                </g>
                <g id="Shape">
                    <use fill="black" fill-opacity="1" filter="url(#filter-20)" xlink:href="#path-19"></use>
                    <use fill="#FDEAD5" xlink:href="#path-19"></use>
                </g>
                <g id="Shape">
                    <use fill="black" fill-opacity="1" filter="url(#filter-22)" xlink:href="#path-21"></use>
                    <use fill="#FDEAD5" xlink:href="#path-21"></use>
                </g>
                <g id="Shape">
                    <use fill="black" fill-opacity="1" filter="url(#filter-24)" xlink:href="#path-23"></use>
                    <use fill="#FDEAD5" xlink:href="#path-23"></use>
                </g>
                <g id="Path">
                    <use fill="black" fill-opacity="1" filter="url(#filter-26)" xlink:href="#path-25"></use>
                    <use fill="#FDEAD5" xlink:href="#path-25"></use>
                </g>
                <g id="Path">
                    <use fill="black" fill-opacity="1" filter="url(#filter-28)" xlink:href="#path-27"></use>
                    <use fill="#FDEAD5" xlink:href="#path-27"></use>
                </g>
            </g>
        </g>
    </g>
</svg>