<?xml version="1.0" encoding="UTF-8"?>
<svg width="610px" height="83px" viewBox="0 0 610 83" version="1.1" xmlns="http://www.w3.org/2000/svg" xmlns:xlink="http://www.w3.org/1999/xlink">
    <title>logo-retro</title>
    <g id="logo-retro" stroke="none" stroke-width="1" fill="none" fill-rule="evenodd">
        <g id="Jonathan-Rhodes" transform="translate(5.657172, 18.239051)" fill="#000000" fill-rule="nonzero">
            <path d="M8.62969082,0.413792168 L8.62969082,45.6774814 C8.62969082,50.9154838 5.83988483,51.9545451 1.82089716,52.1350077 L0,57.9327005 C0.918582141,57.9327005 1.82394669,57.9398168 2.71304523,57.9479504 C11.9751204,58.0287768 19.9683612,51.4731397 21.7048732,42.3747529 C22.0103898,40.7744781 22.0444494,39.1284514 22.0444494,37.5037758 L22.0444494,0.413792168 L8.62969082,0.413792168 Z" id="Path"></path>
            <path d="M77.9637146,15.7363767 C73.9264253,6.10219218 64.3018997,0 53.8569027,0 L52.5153754,0 C42.0698692,0 32.4458516,6.10270025 28.4080543,15.7363767 C27.1229538,18.8027227 26.4204191,22.1222263 26.4204191,25.5876248 C26.4204191,29.0530234 27.1229538,32.372527 28.4080543,35.4388729 C32.4453436,45.0725494 42.0698692,51.1752497 52.5153754,51.1752497 L53.8563935,51.1752497 C64.3018997,51.1752497 73.9264253,45.0725494 77.9637146,35.4388729 C79.2488151,32.372527 79.9513501,29.0530234 79.9513501,25.5876248 C79.9513501,22.1222263 79.2493232,18.8027227 77.9637146,15.7363767 Z M53.1869011,45.3109641 C45.8296013,45.2037025 39.8870297,36.4164234 39.8870297,25.5871168 C39.8870297,14.7588262 45.828584,5.9720552 53.1848666,5.86326937 C60.5421665,5.97053099 66.4847381,14.7578101 66.4847381,25.5871168 C66.4847381,36.4159153 60.5431838,45.2026864 53.1869011,45.3109641 Z" id="Shape"></path>
            <polygon id="Path" points="110.960983 0.414301343 110.960983 42.7122957 97.742955 0.414301343 84.3281965 0.414301343 85.4323252 3.94731094 85.4323252 50.7609483 90.4629229 50.7609483 90.4629229 20.0451231 100.062032 50.7609483 115.991581 50.7609483 115.991581 0.414302448"></polygon>
            <polygon id="Path" points="158.792339 50.7609472 143.058504 0.413793272 129.643745 0.413793272 132.514379 9.60012386 119.651685 50.7609461 124.682283 50.7609461 135.029678 17.6487753 139.477202 31.8809546 134.474055 31.8809546 132.662816 37.6771221 141.288442 37.6771221 145.377073 50.7609472"></polygon>
            <polygon id="Path" points="194.885126 0.413793272 152.731502 0.413793272 152.731502 6.21046994 167.101442 6.21046994 167.101442 50.7609483 180.516201 50.7609483 180.516201 6.21046994 194.885126 6.21046994"></polygon>
            <path d="M220.743407,0.413793272 L220.743407,31.8809546 L213.777026,31.8809546 L211.965788,37.6771221 L220.743408,37.6771221 L220.743408,50.7609472 L234.158166,50.7609472 L234.158166,0.413793272 L220.743407,0.413793272 Z M198.551029,0.413792168 L198.551029,50.7609461 L211.965788,50.7609461 L211.965788,0.413792168 L198.551029,0.413792168 Z" id="Shape"></path>
            <polygon id="Path" points="276.924201 50.7609472 261.190365 0.413793272 247.775607 0.413793272 250.64624 9.60012386 237.783547 50.7609461 242.814144 50.7609461 253.16154 17.6487753 257.609064 31.8809546 252.605916 31.8809546 250.794678 37.6771221 259.420303 37.6771221 263.508934 50.7609472"></polygon>
            <polygon id="Path" points="306.472109 0.414301343 306.472109 42.7122957 293.254081 0.414301343 279.839322 0.414301343 280.943451 3.94731094 280.943451 50.7609483 285.974049 50.7609483 285.974049 20.0451231 295.573158 50.7609483 311.502706 50.7609483 311.502706 0.414302448"></polygon>
            <path d="M375.103156,41.4512425 C373.169913,36.8379968 369.931746,33.0513237 365.934617,30.3758956 C369.449834,28.7547788 372.338767,25.903463 373.888715,22.2052418 C374.679194,20.3197843 375.11078,18.2787729 375.11078,16.1477843 C375.11078,14.0167956 374.678685,11.9757842 373.888715,10.0903267 C371.406458,4.16605558 365.488287,0.413949007 359.065836,0.413949007 L340.497969,0.413949007 L340.497969,50.7611029 L353.912727,50.7611029 L353.912727,6.21469245 L357.153437,6.21062567 C360.8908,6.21062567 363.920546,10.6596748 363.920546,16.1472762 C363.920546,21.6348775 360.8908,26.0839267 357.153437,26.0839267 L355.830719,26.0671515 L355.749383,26.3330165 C355.748875,26.3330165 355.748366,26.3330165 355.747858,26.3325084 L353.912218,32.3508235 C359.522839,34.4838455 363.685689,41.8945216 363.802609,50.7605938 L377.048596,50.7605938 C376.999286,47.4904007 376.320135,44.3544103 375.103154,41.4512436 L375.103156,41.4512425 Z" id="Path"></path>
            <path d="M404.311054,0.413793272 L404.311054,31.8809546 L397.344673,31.8809546 L395.533435,37.6771221 L404.311055,37.6771221 L404.311055,50.7609472 L417.725814,50.7609472 L417.725814,0.413793272 L404.311054,0.413793272 Z M382.118676,0.413792168 L382.118676,50.7609461 L395.533435,50.7609461 L395.533435,0.413792168 L382.118676,0.413792168 Z" id="Shape"></path>
            <path d="M474.342436,15.7363767 C470.305146,6.10219218 460.680621,0 450.235624,0 L448.894096,0 C438.44859,0 428.824573,6.10270025 424.786775,15.7363767 C423.501675,18.8027227 422.79914,22.1222263 422.79914,25.5876248 C422.79914,29.0530234 423.501675,32.372527 424.786775,35.4388729 C428.824065,45.0725494 438.44859,51.1752497 448.894096,51.1752497 L450.235114,51.1752497 C460.680621,51.1752497 470.305146,45.0725494 474.342436,35.4388729 C475.627536,32.372527 476.330071,29.0530234 476.330071,25.5876248 C476.330071,22.1222263 475.628044,18.8027227 474.342436,15.7363767 Z M449.565622,45.3109641 C442.208322,45.2037025 436.265751,36.4164234 436.265751,25.5871168 C436.265751,14.7588262 442.207305,5.9720552 449.563588,5.86326937 C456.920887,5.97053099 462.863459,14.7578101 462.863459,25.5871168 C462.863459,36.4159153 456.921905,45.2026864 449.565622,45.3109641 Z" id="Shape"></path>
            <path d="M520.107553,15.8954892 C516.135333,6.41787575 506.666869,0.413794377 496.390134,0.413794377 L481.430512,0.413794377 L481.430512,50.7609483 L496.390642,50.7609483 C506.667377,50.7609483 516.135841,44.757375 520.108062,35.2792535 C521.372319,32.2622169 522.063671,28.9965987 522.063671,25.587627 C522.063163,22.1781473 521.372319,18.9125291 520.107554,15.8954925 L520.107553,15.8954892 Z M495.596606,44.9968092 L494.844761,44.9947758 L494.844761,6.1799724 L495.596606,6.17793901 C502.896463,6.17793901 508.814125,14.8676154 508.814125,25.5876281 C508.814125,36.3071328 502.896462,44.9968092 495.596606,44.9968092 Z" id="Shape"></path>
            <polygon id="Path" points="554.96159 6.21046994 554.96159 0.413793272 527.177908 0.413793272 527.177908 50.7609472 554.96159 50.7609472 554.96159 44.9642705 540.592666 44.9642705 540.592666 37.6771221 547.565148 37.6771221 549.369779 31.8809546 540.592667 31.8809546 540.592667 6.21046883"></polygon>
            <path d="M591.716052,29.7631836 C587.438316,19.3873207 570.161649,23.268547 570.161649,12.8240581 C570.161649,9.17158768 572.178259,6.21046883 574.665599,6.21046883 L588.769675,6.22165193 L588.769675,0.413792168 L572.606796,0.413792168 C566.417677,0.413792168 560.715044,4.02966159 558.322765,9.73737715 C557.561262,11.5542075 557.145435,13.5210007 557.145435,15.5742125 C557.145435,17.6274242 557.571937,19.5901506 558.322765,21.4110477 C562.600502,31.7869106 579.877677,27.9056843 579.877677,38.3501732 C579.877677,42.0026436 577.861066,44.9637625 575.373726,44.9637625 L558.727409,44.9525794 L558.727409,50.7604391 L577.432021,50.7604391 C583.62114,50.7604391 589.323772,47.1445697 591.715543,41.4368541 C592.477046,39.6200238 592.893382,37.6532306 592.893382,35.6000188 C592.89389,33.5468071 592.466879,31.5845899 591.716051,29.7631836 L591.716052,29.7631836 Z" id="Path"></path>
        </g>
    </g>
</svg>